ISO-10303-21;
HEADER;
FILE_DESCRIPTION ((''), '2;1');
FILE_NAME ('', '2026-02-03T09:35:29', (''), (''), 'Processor version 6.0.0.0', 'Xbim.IO.MemoryModel', '');
FILE_SCHEMA (('IFC4'));
ENDSEC;
DATA;
#1=IFCPROJECT('18ZfMm7FH9LgHg$09_Uaev',#2,'GeoJSON to IFC',$,$,$,$,(#27,#30),#7);
#2=IFCOWNERHISTORY(#5,#6,$,.ADDED.,1770111330,$,$,0);
#3=IFCPERSON($,'ifahdah.o','',$,$,$,$,$);
#4=IFCORGANIZATION($,'Unspecified',$,$,$);
#5=IFCPERSONANDORGANIZATION(#3,#4,$);
#6=IFCAPPLICATION(#4,'Unspecified','Unspecified',$);
#7=IFCUNITASSIGNMENT((#8,#9,#10,#11,#12,#13,#14,#15,#16,#17,#18,#19,#20,#21,#22,#23,#24));
#8=IFCSIUNIT(*,.LENGTHUNIT.,$,.METRE.);
#9=IFCSIUNIT(*,.AREAUNIT.,$,.SQUARE_METRE.);
#10=IFCSIUNIT(*,.VOLUMEUNIT.,$,.CUBIC_METRE.);
#11=IFCSIUNIT(*,.MASSUNIT.,.KILO.,.GRAM.);
#12=IFCSIUNIT(*,.SOLIDANGLEUNIT.,$,.STERADIAN.);
#13=IFCSIUNIT(*,.PLANEANGLEUNIT.,$,.RADIAN.);
#14=IFCSIUNIT(*,.TIMEUNIT.,$,.SECOND.);
#15=IFCSIUNIT(*,.THERMODYNAMICTEMPERATUREUNIT.,$,.DEGREE_CELSIUS.);
#16=IFCSIUNIT(*,.POWERUNIT.,$,.WATT.);
#17=IFCSIUNIT(*,.FORCEUNIT.,$,.NEWTON.);
#18=IFCSIUNIT(*,.ILLUMINANCEUNIT.,$,.LUX.);
#19=IFCSIUNIT(*,.LUMINOUSFLUXUNIT.,$,.LUMEN.);
#20=IFCSIUNIT(*,.LUMINOUSINTENSITYUNIT.,$,.CANDELA.);
#21=IFCSIUNIT(*,.PRESSUREUNIT.,$,.PASCAL.);
#22=IFCSIUNIT(*,.ELECTRICCURRENTUNIT.,$,.AMPERE.);
#23=IFCSIUNIT(*,.ELECTRICVOLTAGEUNIT.,$,.VOLT.);
#24=IFCSIUNIT(*,.FREQUENCYUNIT.,$,.HERTZ.);
#25=IFCCARTESIANPOINT((0.,0.,0.));
#26=IFCAXIS2PLACEMENT3D(#25,$,$);
#27=IFCGEOMETRICREPRESENTATIONCONTEXT('Building Model','Model',3,1.E-05,#26,$);
#28=IFCCARTESIANPOINT((0.,0.));
#29=IFCAXIS2PLACEMENT2D(#28,$);
#30=IFCGEOMETRICREPRESENTATIONCONTEXT('Building Plan View','Plan',2,1.E-05,#29,$);
#31=IFCLOCALPLACEMENT($,#32);
#32=IFCAXIS2PLACEMENT3D(#33,#35,#34);
#33=IFCCARTESIANPOINT((502003.28100000042,2780737.0130000003,0.));
#34=IFCDIRECTION((1.,0.,0.));
#35=IFCDIRECTION((0.,0.,1.));
#36=IFCSITE('1E_ksQeVLCHujKRz8xJT$d',#2,'Site',$,$,#31,$,$,$,$,$,$,$,$);
#37=IFCBUILDING('0CNEEXONP2fRvtp01mvDeG',#2,'Building',$,$,#38,$,$,$,$,$,$);
#38=IFCLOCALPLACEMENT(#31,#39);
#39=IFCAXIS2PLACEMENT3D(#40,$,$);
#40=IFCCARTESIANPOINT((0.,0.,0.));
#41=IFCBUILDINGSTOREY('2WwSZp9U59rghP8lS9Gkbe',#2,'Parcel',$,$,#42,$,$,$,$);
#42=IFCLOCALPLACEMENT(#31,#43);
#43=IFCAXIS2PLACEMENT3D(#44,$,$);
#44=IFCCARTESIANPOINT((0.,0.,0.));
#45=IFCRELAGGREGATES('0DExhno294RPYjloaUUwnB',#2,$,$,#1,(#36));
#46=IFCRELAGGREGATES('3WdI$ZpJH1jfqxj1aBRtJo',#2,$,$,#36,(#37));
#47=IFCRELAGGREGATES('0pBqz4xeHEUw6SPQIZ$cbJ',#2,$,$,#37,(#41));
#48=IFCCARTESIANPOINT((0.,0.));
#49=IFCCARTESIANPOINT((-31.651000000536442,-24.458000000566244));
#50=IFCCARTESIANPOINT((-53.052000000141561,3.2369999997317791));
#51=IFCCARTESIANPOINT((-74.453000000678,30.932000000029802));
#52=IFCCARTESIANPOINT((-95.854000000283122,58.626000000163913));
#53=IFCCARTESIANPOINT((-117.25500000081956,86.321000000461936));
#54=IFCCARTESIANPOINT((-85.603000000119209,110.77899999916553));
#55=IFCCARTESIANPOINT((-64.20200000051409,83.083999998867512));
#56=IFCCARTESIANPOINT((-42.802000000141561,55.390000000596046));
#57=IFCCARTESIANPOINT((-21.401000000536442,27.695000000298023));
#58=IFCCARTESIANPOINT((0.,0.));
#59=IFCPOLYLINE((#48,#49,#50,#51,#52,#53,#54,#55,#56,#57,#58));
#60=IFCARBITRARYCLOSEDPROFILEDEF(.AREA.,$,#59);
#61=IFCEXTRUDEDAREASOLID(#60,#63,#62,0.2);
#62=IFCDIRECTION((0.,0.,1.));
#63=IFCAXIS2PLACEMENT3D($,$,$);
#64=IFCSHAPEREPRESENTATION(#27,'Body','SweptSolid',(#61));
#65=IFCPRODUCTDEFINITIONSHAPE($,$,(#64));
#66=IFCSTYLEDITEM(#61,(#67),$);
#67=IFCSURFACESTYLE($,.BOTH.,(#68));
#68=IFCSURFACESTYLERENDERING(#69,$,$,$,$,$,$,$,.BLINN.);
#69=IFCCOLOURRGB('Orange',1.,0.5,0.);
#70=IFCBUILDINGELEMENTPROXY('0TRXlmWHHEm89nQ$7JmFzo',#2,'Geo Polygon',$,$,#71,#65,$,$);
#71=IFCLOCALPLACEMENT(#42,#72);
#72=IFCAXIS2PLACEMENT3D(#73,$,$);
#73=IFCCARTESIANPOINT((0.,0.,0.));
#74=IFCRELCONTAINEDINSPATIALSTRUCTURE('3CxFDmLCrAEgrI9P3Q2Oeh',#2,$,$,(#70),#41);
ENDSEC;
END-ISO-10303-21;
